<svg xmlns="http://www.w3.org/2000/svg" viewBox="0 0 100 100">
  <circle cx="50" cy="50" r="45" fill="#e74c3c" stroke="#c0392b" stroke-width="2"/>
  <!-- Cabeça do Dragão -->
  <path d="M30,40 Q50,30 70,40 Q60,50 70,60 Q50,70 30,60 Q40,50 30,40" fill="#c0392b" stroke="#a93226" stroke-width="2"/>
  <!-- Olhos -->
  <circle cx="40" cy="45" r="4" fill="#fff"/>
  <circle cx="60" cy="45" r="4" fill="#fff"/>
  <circle cx="40" cy="45" r="2" fill="#000"/>
  <circle cx="60" cy="45" r="2" fill="#000"/>
  <!-- Chifres -->
  <path d="M35,30 L25,15" fill="none" stroke="#f1c40f" stroke-width="3"/>
  <path d="M65,30 L75,15" fill="none" stroke="#f1c40f" stroke-width="3"/>
  <!-- Fogo -->
  <path d="M50,60 Q55,70 60,65 Q65,75 70,70 Q60,80 50,75 Q40,80 30,70 Q35,75 40,65 Q45,70 50,60" fill="#f39c12" stroke="#e67e22" stroke-width="1"/>
</svg>